<svg width="24" height="16" viewBox="0 0 24 16" fill="none" xmlns="http://www.w3.org/2000/svg">
    <path
        d="M1.27436 13.8766C2.06257 14.6365 3.14706 15.1083 4.34376 15.1083H19.5586L19.7933 15.1091C20.9383 15.0749 21.9703 14.613 22.7256 13.8794V13.8766C23.5138 13.1138 24 12.0177 24 10.8962C24 9.77462 23.5455 8.75478 22.8091 8.00049C22.1761 7.35074 21.3304 6.89873 20.3812 6.74336C20.5739 6.0145 20.456 5.32801 20.1423 4.75454C19.9007 4.31665 19.5441 3.94657 19.1212 3.67538C18.7012 3.40417 18.2122 3.22901 17.703 3.18098C17.0528 3.11884 16.374 3.26292 15.7727 3.67538C15.4304 2.68943 14.8033 1.83063 13.9863 1.19216C13.0313 0.446355 11.8173 0 10.4998 0C8.96656 0 7.57712 0.604557 6.5703 1.57919C5.56347 2.55383 4.93923 3.9042 4.93923 5.39299C4.93923 5.74612 4.97663 6.09078 5.0428 6.42695C5.06581 6.53713 5.0917 6.64448 5.12047 6.75183L5.09457 6.74618C4.85005 6.70664 4.59691 6.68403 4.34376 6.68403C3.14419 6.68403 2.05969 7.15299 1.27436 7.91574C0.486156 8.67851 0 9.73224 0 10.8962C0 12.0601 0.486156 13.1138 1.27436 13.8766Z"
        fill="#2DC48D" />
    <path
        d="M10.3587 8.41995H9.02966V7.66284H6.92969V6.49045L8.5809 4.13721H10.3558V6.53848H10.9484V7.66284H10.3644V8.41995H10.3587ZM9.02103 5.45649L8.29323 6.53848H9.04404V5.45649H9.01816H9.02103Z"
        fill="white" />
    <path
        d="M13.1778 5.94746C13.2468 5.89378 13.3044 5.83728 13.3504 5.7723C13.3964 5.70732 13.4194 5.64234 13.4194 5.57173C13.4194 5.48979 13.3935 5.41918 13.3418 5.35985C13.29 5.30052 13.2094 5.26945 13.0972 5.26945C12.9793 5.26945 12.8786 5.31465 12.8009 5.40788C12.7233 5.50111 12.6801 5.62541 12.6715 5.7836L11.2734 5.62541C11.3022 5.34854 11.377 5.10842 11.4949 4.90502C11.6129 4.70443 11.7625 4.53493 11.9408 4.40215C12.1192 4.26938 12.3177 4.17051 12.5392 4.10835C12.7578 4.04621 12.985 4.01514 13.2209 4.01514C13.4338 4.01514 13.6467 4.04055 13.8595 4.09423C14.0724 4.14791 14.2594 4.22701 14.4234 4.34001C14.5874 4.45019 14.7197 4.59427 14.8232 4.77225C14.9268 4.95021 14.9785 5.1621 14.9785 5.41352C14.9785 5.5915 14.9555 5.74687 14.9067 5.88248C14.8606 6.01808 14.7945 6.13674 14.7168 6.24126C14.6362 6.34579 14.5471 6.44184 14.4464 6.52659C14.3457 6.61134 14.2393 6.69326 14.13 6.76955L13.4885 7.2159H14.9901V8.41936H11.4547V7.30065L13.1807 5.94462L13.1778 5.94746Z"
        fill="white" />
    <path
        d="M17.5137 8.54277C17.2462 8.54277 17.0131 8.50886 16.8118 8.44106C16.6104 8.37327 16.4378 8.28004 16.294 8.16422C16.1501 8.04839 16.0294 7.91278 15.9344 7.76023C15.8367 7.60768 15.7619 7.44665 15.7071 7.27715C15.6525 7.10765 15.6123 6.93532 15.5891 6.763C15.5662 6.59067 15.5547 6.42117 15.5547 6.26014C15.5547 6.09912 15.5662 5.93809 15.5891 5.76293C15.6123 5.59061 15.6497 5.4211 15.7071 5.25442C15.7619 5.08775 15.8394 4.93237 15.9344 4.78265C16.0322 4.63292 16.1501 4.50296 16.294 4.38996C16.4378 4.27696 16.6104 4.18657 16.8118 4.12159C17.0131 4.05379 17.2462 4.02271 17.5137 4.02271C17.9164 4.02271 18.2443 4.09334 18.5004 4.23741C18.7564 4.38149 18.9549 4.56229 19.0987 4.78265C19.2426 5.003 19.3404 5.24312 19.395 5.50867C19.4496 5.77423 19.4755 6.02284 19.4755 6.26296C19.4755 6.42117 19.464 6.58784 19.4411 6.763C19.4181 6.93814 19.3807 7.11047 19.3231 7.27997C19.2685 7.44947 19.1937 7.6105 19.0987 7.76305C19.0038 7.9156 18.883 8.05121 18.7392 8.16704C18.5924 8.28286 18.4198 8.37609 18.2184 8.44389C18.0171 8.51168 17.784 8.54559 17.5165 8.54559L17.5137 8.54277ZM17.5137 5.25725C17.4245 5.25725 17.3497 5.28833 17.2921 5.34765C17.2347 5.40698 17.1886 5.48608 17.1569 5.58495C17.1253 5.681 17.1023 5.78836 17.0879 5.90984C17.0764 6.02848 17.0707 6.1443 17.0707 6.25731C17.0707 6.37031 17.0764 6.49461 17.0879 6.61609C17.0994 6.74039 17.1225 6.85057 17.1569 6.95227C17.1886 7.05397 17.2347 7.1359 17.2921 7.19805C17.3497 7.2602 17.4245 7.29128 17.5137 7.29128C17.6028 7.29128 17.6776 7.2602 17.7381 7.19805C17.7985 7.1359 17.8416 7.05397 17.8733 6.95227C17.9049 6.85057 17.9251 6.74039 17.9366 6.61609C17.9481 6.49179 17.9538 6.37314 17.9538 6.25731C17.9538 6.14148 17.9481 6.02848 17.9366 5.90984C17.9251 5.79118 17.902 5.68383 17.8733 5.58495C17.8416 5.4889 17.7985 5.4098 17.7381 5.34765C17.6776 5.2855 17.6028 5.25725 17.5137 5.25725Z"
        fill="white" />
    <path
        d="M1.89062 11.0561C1.89062 10.799 1.93665 10.5673 2.02871 10.3611C2.12076 10.1549 2.24733 9.9769 2.40555 9.82717C2.56376 9.68028 2.75362 9.56727 2.96937 9.48534C3.18512 9.40625 3.41526 9.3667 3.65978 9.3667C3.90428 9.3667 4.1488 9.40625 4.37318 9.48534C4.59756 9.56445 4.78455 9.6718 4.93413 9.8074L4.26387 10.6012C4.20346 10.5221 4.12579 10.4628 4.03374 10.4233C3.94168 10.3837 3.83813 10.3611 3.72593 10.3611C3.63388 10.3611 3.54758 10.3781 3.46991 10.4091C3.38937 10.4402 3.32033 10.4854 3.25992 10.5476C3.19951 10.6069 3.15348 10.6803 3.11895 10.7651C3.08444 10.8498 3.06718 10.9459 3.06718 11.0504C3.06718 11.1549 3.08444 11.251 3.11895 11.3329C3.15348 11.4148 3.20238 11.4883 3.26279 11.5476C3.3232 11.6069 3.39224 11.655 3.47278 11.6861C3.55334 11.7171 3.63676 11.7341 3.72593 11.7341C3.85251 11.7341 3.95895 11.7086 4.05099 11.6578C4.14018 11.6069 4.21209 11.5476 4.26387 11.477L4.93413 12.268C4.78743 12.4121 4.6062 12.5279 4.39045 12.6127C4.1747 12.6974 3.93305 12.7426 3.65978 12.7426C3.41526 12.7426 3.18512 12.7031 2.96937 12.6211C2.75362 12.5392 2.56664 12.4262 2.40555 12.2765C2.24733 12.1268 2.12076 11.9488 2.02871 11.7426C1.93665 11.5363 1.89062 11.3075 1.89062 11.0532V11.0561Z"
        fill="white" />
    <path d="M6.15522 9.45654H7.25698V11.7279H8.33573V12.6517H6.15234V9.45654H6.15522Z" fill="white" />
    <path
        d="M9.31641 11.0363C9.31641 10.7792 9.36243 10.5504 9.45449 10.3442C9.54654 10.1379 9.67312 9.96278 9.83422 9.81871C9.9953 9.67462 10.1852 9.56162 10.4067 9.48534C10.6282 9.40625 10.8669 9.3667 11.123 9.3667C11.379 9.3667 11.6206 9.40625 11.8392 9.48534C12.0608 9.56445 12.2506 9.67462 12.4146 9.81871C12.5757 9.96278 12.7051 10.1379 12.7972 10.3442C12.8892 10.5504 12.9353 10.782 12.9353 11.0363C12.9353 11.2905 12.8892 11.525 12.7972 11.7369C12.7051 11.9488 12.5786 12.1268 12.4146 12.2765C12.2535 12.4262 12.0608 12.5392 11.8392 12.6211C11.6177 12.7031 11.379 12.7426 11.123 12.7426C10.8669 12.7426 10.6253 12.7031 10.4067 12.6211C10.188 12.5392 9.9953 12.4262 9.83422 12.2765C9.67312 12.1268 9.54654 11.9488 9.45449 11.7369C9.36243 11.525 9.31641 11.2934 9.31641 11.0363ZM10.4786 11.0363C10.4786 11.1408 10.4958 11.2369 10.5275 11.3245C10.5591 11.412 10.6052 11.4883 10.6598 11.5504C10.7173 11.6126 10.7835 11.6634 10.8641 11.6974C10.9446 11.7313 11.0309 11.7482 11.1201 11.7482C11.2093 11.7482 11.2984 11.7313 11.3761 11.6974C11.4538 11.6634 11.5228 11.6126 11.5803 11.5504C11.6379 11.4883 11.6839 11.412 11.7156 11.3245C11.7472 11.2369 11.7645 11.1408 11.7645 11.0363C11.7645 10.9318 11.7472 10.8414 11.7156 10.7538C11.6839 10.669 11.6379 10.5956 11.5803 10.5363C11.5228 10.4769 11.4538 10.4317 11.3761 10.3978C11.2984 10.3639 11.2121 10.347 11.1201 10.347C11.028 10.347 10.9417 10.3639 10.8641 10.3978C10.7835 10.4317 10.7173 10.4769 10.6598 10.5363C10.6023 10.5956 10.5591 10.6662 10.5275 10.7538C10.4958 10.8385 10.4786 10.9346 10.4786 11.0363Z"
        fill="white" />
    <path
        d="M15.773 12.7412C15.5198 12.7412 15.2983 12.7073 15.1085 12.6367C14.9215 12.5689 14.7633 12.4728 14.6367 12.3514C14.5101 12.2299 14.4181 12.0886 14.3577 11.9248C14.2973 11.7609 14.2656 11.583 14.2656 11.3937V9.45288H15.3587V11.275C15.3587 11.4276 15.3961 11.5491 15.4709 11.6338C15.5457 11.7186 15.6521 11.7638 15.7903 11.7638C15.9284 11.7638 16.0348 11.7214 16.1096 11.6338C16.1844 11.5491 16.2218 11.4276 16.2218 11.275V9.45288H17.312V11.3937C17.312 11.583 17.2803 11.7609 17.2142 11.9248C17.1481 12.0886 17.0502 12.2299 16.9237 12.3514C16.7943 12.4728 16.636 12.5661 16.4433 12.6367C16.2505 12.7073 16.0291 12.7412 15.7758 12.7412H15.773Z"
        fill="white" />
    <path
        d="M18.7958 12.6517V9.45654H20.0098C20.2658 9.45654 20.5132 9.48197 20.7462 9.53C20.9792 9.58084 21.1863 9.6656 21.3676 9.78707C21.5459 9.90855 21.6898 10.0696 21.7962 10.273C21.9027 10.4736 21.9573 10.7278 21.9573 11.0357C21.9573 11.3154 21.9055 11.5584 21.802 11.7618C21.6984 11.9652 21.5631 12.1347 21.3906 12.2646C21.218 12.3946 21.0223 12.4935 20.7979 12.5556C20.5737 12.6178 20.3406 12.6517 20.099 12.6517H18.793H18.7958ZM19.8487 10.369V11.7279H20.0501C20.3061 11.7279 20.5046 11.6742 20.6426 11.564C20.7807 11.4538 20.8498 11.2759 20.8498 11.0273C20.8498 10.821 20.7807 10.66 20.6426 10.5442C20.5046 10.4284 20.3204 10.3719 20.0903 10.3719H19.8459L19.8487 10.369Z"
        fill="white" />
</svg>